<?xml version="1.0" encoding="UTF-8"?>
<!DOCTYPE svg PUBLIC "-//W3C//DTD SVG 1.1//EN" "http://www.w3.org/Graphics/SVG/1.1/DTD/svg11.dtd">
<svg xmlns="http://www.w3.org/2000/svg" version="1.1" width="2000px" height="2000px" style="shape-rendering:geometricPrecision; text-rendering:geometricPrecision; image-rendering:optimizeQuality; fill-rule:evenodd; clip-rule:evenodd" xmlns:xlink="http://www.w3.org/1999/xlink">
<g><path style="opacity:0.919" fill="#fefffe" d="M 985.5,160.5 C 1032.23,158.279 1076.23,168.112 1117.5,190C 1290.17,290.667 1462.83,391.333 1635.5,492C 1709.28,535.332 1750.45,599.832 1759,685.5C 1759.83,717.072 1759.66,748.572 1758.5,780C 1689.75,819.121 1621.25,858.621 1553,898.5C 1367.75,789.788 1182.25,681.455 996.5,573.5C 939.5,606.667 882.5,639.833 825.5,673C 1135.92,854.293 1446.42,1035.46 1757,1216.5C 1757.75,1252.18 1757.42,1287.84 1756,1323.5C 1746.03,1406.07 1705.53,1468.57 1634.5,1511C 1461.83,1609.67 1289.17,1708.33 1116.5,1807C 1048.32,1843.82 977.987,1848.49 905.5,1821C 897.045,1817.27 888.712,1813.27 880.5,1809C 706.331,1707.08 531.997,1605.41 357.5,1504C 288.706,1461.31 249.54,1399.48 240,1318.5C 239.171,1283.6 239.338,1248.76 240.5,1214C 307.331,1175.42 373.997,1136.59 440.5,1097.5C 625.331,1205.41 809.998,1313.58 994.5,1422C 997.783,1422.74 1000.78,1422.08 1003.5,1420C 1058.16,1388.34 1112.5,1356.17 1166.5,1323.5C 858.415,1143.37 550.249,963.374 242,783.5C 241.333,750.833 241.333,718.167 242,685.5C 248.895,600.831 288.061,535.997 359.5,491C 535.329,390.92 710.996,290.586 886.5,190C 917.634,173.472 950.634,163.639 985.5,160.5 Z M 995.5,175.5 C 1035.87,174.94 1073.87,184.107 1109.5,203C 1127.67,213.919 1146,224.586 1164.5,235C 1055.83,235.667 947.167,235.667 838.5,235C 857.833,224 877.167,213 896.5,202C 927.743,186.108 960.743,177.275 995.5,175.5 Z M 810.5,250.5 C 863.942,281.057 917.275,311.891 970.5,343C 863.5,343.667 756.5,343.667 649.5,343C 703.556,312.645 757.222,281.812 810.5,250.5 Z M 843.5,251.5 C 945.666,250.334 1048,250.167 1150.5,251C 1099.3,281.033 1047.96,310.866 996.5,340.5C 945.636,310.569 894.636,280.903 843.5,251.5 Z M 1180.5,250.5 C 1184.97,250.133 1189.3,250.633 1193.5,252C 1245.5,282.333 1297.5,312.667 1349.5,343C 1240.5,343.667 1131.5,343.667 1022.5,343C 1075.39,312.392 1128.06,281.559 1180.5,250.5 Z M 621.5,358.5 C 626.287,357.97 630.62,359.137 634.5,362C 685.167,391.667 735.833,421.333 786.5,451C 677.833,451.667 569.167,451.667 460.5,451C 514.556,420.645 568.222,389.812 621.5,358.5 Z M 659.5,359.5 C 761.333,358.334 863.333,358.167 965.5,359C 914.087,388.455 862.921,418.288 812,448.5C 761.358,418.432 710.524,388.765 659.5,359.5 Z M 995.5,358.5 C 1049.19,388.679 1102.52,419.512 1155.5,451C 1049.5,451.667 943.5,451.667 837.5,451C 890.394,420.392 943.061,389.559 995.5,358.5 Z M 1028.5,359.5 C 1130.33,358.334 1232.33,358.167 1334.5,359C 1283.09,388.455 1231.92,418.288 1181,448.5C 1130.36,418.432 1079.52,388.765 1028.5,359.5 Z M 1364.5,358.5 C 1370.11,357.908 1375.44,358.741 1380.5,361C 1431.83,391 1483.17,421 1534.5,451C 1425.17,451.667 1315.83,451.667 1206.5,451C 1259.39,420.392 1312.06,389.559 1364.5,358.5 Z M 432.5,466.5 C 436.308,466.163 439.974,466.663 443.5,468C 493.669,497.586 544.003,526.919 594.5,556C 498.833,556.667 403.167,556.667 307.5,556C 321.142,539.848 336.475,525.514 353.5,513C 379.896,497.474 406.23,481.974 432.5,466.5 Z M 471.5,467.5 C 574.333,466.334 677.333,466.167 780.5,467C 728.902,496.714 677.402,526.547 626,556.5C 574.38,526.943 522.88,497.276 471.5,467.5 Z M 810.5,466.5 C 811.873,466.343 813.207,466.51 814.5,467C 865.167,496.667 915.833,526.333 966.5,556C 863.5,556.667 760.5,556.667 657.5,556C 708.669,526.303 759.669,496.47 810.5,466.5 Z M 844.5,467.5 C 945.999,466.334 1047.67,466.167 1149.5,467C 1098.57,496.381 1047.74,525.881 997,555.5C 946.046,526.276 895.213,496.943 844.5,467.5 Z M 1179.5,466.5 C 1180.87,466.343 1182.21,466.51 1183.5,467C 1234.17,496.667 1284.83,526.333 1335.5,556C 1232.5,556.667 1129.5,556.667 1026.5,556C 1077.67,526.303 1128.67,496.47 1179.5,466.5 Z M 1213.5,467.5 C 1316.33,466.334 1419.33,466.167 1522.5,467C 1470.8,496.849 1419.13,526.683 1367.5,556.5C 1316.15,526.826 1264.82,497.159 1213.5,467.5 Z M 1552.5,466.5 C 1557.95,465.826 1562.95,466.992 1567.5,470C 1592.34,484.919 1617.34,499.586 1642.5,514C 1660.28,525.764 1676.28,539.764 1690.5,556C 1593.5,556.667 1496.5,556.667 1399.5,556C 1450.56,526.14 1501.56,496.307 1552.5,466.5 Z M 294.5,572.5 C 395.834,572.333 497.167,572.5 598.5,573C 547.167,603 495.833,633 444.5,663C 442.801,663.958 440.967,664.458 439,664.5C 435.386,663.448 431.886,661.948 428.5,660C 382.64,633.24 336.973,606.24 291.5,579C 292.906,577.022 293.906,574.855 294.5,572.5 Z M 653.5,573.5 C 757.999,572.334 862.666,572.167 967.5,573C 915.167,603.5 862.833,634 810.5,664.5C 758.275,633.891 705.942,603.557 653.5,573.5 Z M 1025.5,573.5 C 1130.33,572.334 1235.33,572.167 1340.5,573C 1288.04,603.3 1235.7,633.8 1183.5,664.5C 1130.8,634.111 1078.13,603.778 1025.5,573.5 Z M 1394.5,573.5 C 1497.33,572.168 1600.33,572.168 1703.5,573.5C 1704.31,574.814 1705.31,575.981 1706.5,577C 1655.91,606.456 1605.24,635.623 1554.5,664.5C 1551.3,663.901 1548.3,662.734 1545.5,661C 1495.44,631.305 1445.11,602.138 1394.5,573.5 Z M 625.5,574.5 C 676.642,604.574 727.975,634.407 779.5,664C 677.167,664.667 574.833,664.667 472.5,664C 523.669,634.303 574.669,604.47 625.5,574.5 Z M 1366.5,574.5 C 1418.11,604.31 1469.78,634.143 1521.5,664C 1419.17,664.667 1316.83,664.667 1214.5,664C 1265.39,634.392 1316.06,604.559 1366.5,574.5 Z M 1712.5,590.5 C 1713.5,590.414 1714.33,590.748 1715,591.5C 1727.59,614.28 1736.43,638.447 1741.5,664C 1690.17,664.667 1638.83,664.667 1587.5,664C 1629.34,639.637 1671,615.137 1712.5,590.5 Z M 282.5,592.5 C 323.473,616.322 364.473,640.155 405.5,664C 356.834,664.5 308.168,664.667 259.5,664.5C 263.565,639.307 271.231,615.307 282.5,592.5 Z M 257.5,679.5 C 309.834,679.333 362.168,679.5 414.5,680C 362.082,710.959 309.582,741.793 257,772.5C 256.412,741.496 256.579,710.496 257.5,679.5 Z M 463.5,680.5 C 569.999,679.334 676.666,679.167 783.5,680C 730.501,711.519 677.167,742.353 623.5,772.5C 569.945,742.292 516.612,711.626 463.5,680.5 Z M 1209.5,680.5 C 1316,679.334 1422.67,679.167 1529.5,680C 1476.53,711.47 1423.2,742.304 1369.5,772.5C 1316.15,741.826 1262.82,711.159 1209.5,680.5 Z M 1578.5,680.5 C 1633.33,679.501 1688.33,679.168 1743.5,679.5C 1744.41,710.489 1744.74,741.489 1744.5,772.5C 1740.21,772.965 1736.21,772.132 1732.5,770C 1681.28,739.891 1629.94,710.058 1578.5,680.5 Z M 809.5,682.5 C 861.439,711.805 913.105,741.638 964.5,772C 861.833,772.667 759.167,772.667 656.5,772C 707.563,742.14 758.563,712.307 809.5,682.5 Z M 438.5,683.5 C 489.303,712.736 539.97,742.236 590.5,772C 489.5,772.667 388.5,772.667 287.5,772C 338.225,742.978 388.558,713.478 438.5,683.5 Z M 1553.5,683.5 C 1604.45,712.977 1655.45,742.477 1706.5,772C 1605.17,772.667 1503.83,772.667 1402.5,772C 1452.9,742.474 1503.23,712.974 1553.5,683.5 Z M 279.5,788.5 C 385.666,787.334 491.999,787.167 598.5,788C 545.606,819.071 492.606,849.904 439.5,880.5C 386.149,849.826 332.816,819.159 279.5,788.5 Z M 648.5,788.5 C 755.999,787.334 863.666,787.167 971.5,788C 917.42,819.122 863.587,850.622 810,882.5C 756.194,851.017 702.36,819.684 648.5,788.5 Z M 1394.5,788.5 C 1500.67,787.334 1607,787.167 1713.5,788C 1660.58,819.249 1607.42,850.082 1554,880.5C 1500.88,849.69 1447.71,819.024 1394.5,788.5 Z M 781.5,883.5 C 676.5,883.5 571.5,883.5 466.5,883.5C 518.606,852.608 570.939,821.941 623.5,791.5C 676.465,821.831 729.132,852.497 781.5,883.5 Z M 1154.5,883.5 C 1049.17,883.5 943.833,883.5 838.5,883.5C 890.892,852.46 943.558,821.793 996.5,791.5C 1049.52,821.673 1102.19,852.339 1154.5,883.5 Z M 471.5,900.5 C 573.999,899.334 676.666,899.167 779.5,900C 728.33,930.086 676.997,959.919 625.5,989.5C 574.132,959.778 522.799,930.111 471.5,900.5 Z M 809.5,899.5 C 862.303,930.069 914.97,960.903 967.5,992C 862.5,992.667 757.5,992.667 652.5,992C 704.896,961.14 757.23,930.307 809.5,899.5 Z M 840.5,900.5 C 944.333,899.334 1048.33,899.167 1152.5,900C 1100.63,930.435 1048.63,960.602 996.5,990.5C 944.483,960.493 892.483,930.493 840.5,900.5 Z M 1182.5,899.5 C 1235.47,930.322 1288.47,961.155 1341.5,992C 1235.83,992.667 1130.17,992.667 1024.5,992C 1077.39,961.392 1130.06,930.559 1182.5,899.5 Z M 656.5,1008.5 C 759.999,1007.33 863.666,1007.17 967.5,1008C 915.833,1038.17 864.167,1068.33 812.5,1098.5C 760.445,1068.48 708.445,1038.48 656.5,1008.5 Z M 1025.5,1008.5 C 1129,1007.33 1232.67,1007.17 1336.5,1008C 1284.73,1038.3 1232.9,1068.47 1181,1098.5C 1129.21,1068.36 1077.38,1038.36 1025.5,1008.5 Z M 1366.5,1007.5 C 1420.61,1038.39 1474.61,1069.56 1528.5,1101C 1421.5,1101.67 1314.5,1101.67 1207.5,1101C 1260.67,1069.97 1313.67,1038.8 1366.5,1007.5 Z M 995.5,1008.5 C 1048.67,1039.48 1102,1070.31 1155.5,1101C 1049.5,1101.67 943.5,1101.67 837.5,1101C 890.394,1070.39 943.061,1039.56 995.5,1008.5 Z M 437.5,1116.5 C 442.464,1117.95 447.131,1120.12 451.5,1123C 498.167,1150.33 544.833,1177.67 591.5,1205C 489.833,1205.67 388.167,1205.67 286.5,1205C 337.225,1175.98 387.558,1146.48 437.5,1116.5 Z M 843.5,1117.5 C 945.333,1116.33 1047.33,1116.17 1149.5,1117C 1098.79,1147.02 1047.79,1176.52 996.5,1205.5C 945.489,1176.15 894.489,1146.82 843.5,1117.5 Z M 1179.5,1116.5 C 1231.16,1145.3 1282.49,1174.8 1333.5,1205C 1231.83,1205.67 1130.17,1205.67 1028.5,1205C 1079.23,1175.98 1129.56,1146.48 1179.5,1116.5 Z M 1212.5,1117.5 C 1315.67,1116.33 1419,1116.17 1522.5,1117C 1472.67,1145.75 1423,1174.75 1373.5,1204C 1368.67,1206.15 1364.01,1205.81 1359.5,1203C 1310.77,1173.97 1261.77,1145.47 1212.5,1117.5 Z M 1552.5,1116.5 C 1556.56,1118.02 1560.56,1119.85 1564.5,1122C 1611.83,1149.67 1659.17,1177.33 1706.5,1205C 1604.83,1205.67 1503.17,1205.67 1401.5,1205C 1452.23,1175.98 1502.56,1146.48 1552.5,1116.5 Z M 280.5,1221.5 C 387.666,1220.33 494.999,1220.17 602.5,1221C 548.732,1252.3 494.899,1283.47 441,1314.5C 387.379,1283.61 333.879,1252.61 280.5,1221.5 Z M 1021.5,1221.5 C 1129,1220.33 1236.67,1220.17 1344.5,1221C 1290.73,1252.3 1236.9,1283.47 1183,1314.5C 1129.21,1283.36 1075.38,1252.36 1021.5,1221.5 Z M 1390.5,1221.5 C 1498,1220.33 1605.67,1220.17 1713.5,1221C 1659.73,1252.3 1605.9,1283.47 1552,1314.5C 1498.21,1283.36 1444.38,1252.36 1390.5,1221.5 Z M 1741.5,1222.5 C 1741.5,1253.83 1741.5,1285.17 1741.5,1316.5C 1687.83,1316.67 1634.17,1316.5 1580.5,1316C 1634.19,1284.82 1687.86,1253.65 1741.5,1222.5 Z M 254.5,1223.5 C 307.303,1254.07 359.97,1284.9 412.5,1316C 360.168,1316.5 307.834,1316.67 255.5,1316.5C 254.523,1285.53 254.189,1254.53 254.5,1223.5 Z M 469.5,1316.5 C 521.147,1285.67 573.147,1255.34 625.5,1225.5C 677.865,1255.03 729.865,1285.2 781.5,1316C 677.501,1316.5 573.501,1316.67 469.5,1316.5 Z M 1365.5,1225.5 C 1366.87,1225.34 1368.21,1225.51 1369.5,1226C 1420.83,1256 1472.17,1286 1523.5,1316C 1419.5,1316.67 1315.5,1316.67 1211.5,1316C 1263.06,1286.06 1314.39,1255.89 1365.5,1225.5 Z M 257.5,1332.5 C 308.501,1332.33 359.501,1332.5 410.5,1333C 368.167,1357.5 325.833,1382 283.5,1406.5C 270.271,1383.48 261.604,1358.82 257.5,1332.5 Z M 440.5,1332.5 C 491.942,1362.06 543.276,1391.89 594.5,1422C 493.833,1422.67 393.167,1422.67 292.5,1422C 291.167,1421 291.167,1420 292.5,1419C 342.06,1390.39 391.394,1361.56 440.5,1332.5 Z M 472.5,1333.5 C 574.666,1332.33 676.999,1332.17 779.5,1333C 728.33,1363.09 676.997,1392.92 625.5,1422.5C 574.609,1392.56 523.609,1362.89 472.5,1333.5 Z M 809.5,1332.5 C 860.942,1362.06 912.276,1391.89 963.5,1422C 861.5,1422.67 759.5,1422.67 657.5,1422C 708.394,1392.39 759.061,1362.56 809.5,1332.5 Z M 1182.5,1332.5 C 1233.95,1362.11 1285.28,1391.94 1336.5,1422C 1234.17,1422.67 1131.83,1422.67 1029.5,1422C 1080.67,1392.3 1131.67,1362.47 1182.5,1332.5 Z M 1213.5,1333.5 C 1316,1332.33 1418.67,1332.17 1521.5,1333C 1470,1362.58 1418.67,1392.41 1367.5,1422.5C 1316.44,1392.3 1265.11,1362.64 1213.5,1333.5 Z M 1551.5,1332.5 C 1602.64,1362.57 1653.98,1392.41 1705.5,1422C 1603.17,1422.67 1500.83,1422.67 1398.5,1422C 1449.89,1392.64 1500.89,1362.81 1551.5,1332.5 Z M 1582.5,1333.5 C 1634.66,1332.5 1687,1332.17 1739.5,1332.5C 1735.5,1359.66 1727,1385.32 1714,1409.5C 1670.52,1383.51 1626.69,1358.18 1582.5,1333.5 Z M 597.5,1438.5 C 545.727,1469.23 493.727,1499.73 441.5,1530C 438.5,1530.67 435.5,1530.67 432.5,1530C 404.169,1513.84 376.169,1497.17 348.5,1480C 332.093,1468.1 317.427,1454.26 304.5,1438.5C 401.891,1438.5 499.558,1438.5 597.5,1438.5 Z M 970.5,1438.5 C 918.078,1469.8 865.244,1500.46 812,1530.5C 758.613,1500.13 705.446,1469.29 652.5,1438C 758.421,1438.5 864.421,1438.66 970.5,1438.5 Z M 1022.5,1438.5 C 1128.67,1437.33 1235,1437.17 1341.5,1438C 1288.29,1469.1 1234.96,1499.94 1181.5,1530.5C 1128.35,1500.09 1075.35,1469.42 1022.5,1438.5 Z M 1395.5,1438.5 C 1495.17,1438.33 1594.83,1438.5 1694.5,1439C 1681.46,1456.37 1666.13,1471.37 1648.5,1484C 1622.66,1500.09 1596.33,1515.42 1569.5,1530C 1563.5,1530.67 1557.5,1530.67 1551.5,1530C 1499.27,1499.73 1447.27,1469.23 1395.5,1438.5 Z M 624.5,1440.5 C 676.395,1469.79 728.062,1499.62 779.5,1530C 676.833,1530.67 574.167,1530.67 471.5,1530C 522.891,1500.64 573.891,1470.81 624.5,1440.5 Z M 1366.5,1440.5 C 1418.44,1469.8 1470.11,1499.64 1521.5,1530C 1418.83,1530.67 1316.17,1530.67 1213.5,1530C 1264.67,1500.3 1315.67,1470.47 1366.5,1440.5 Z M 995.5,1441.5 C 1046.77,1470.47 1097.77,1499.97 1148.5,1530C 1047.17,1530.67 945.833,1530.67 844.5,1530C 895.225,1500.98 945.558,1471.48 995.5,1441.5 Z M 461.5,1546.5 C 569.5,1546.5 677.5,1546.5 785.5,1546.5C 731.648,1578.01 677.814,1609.68 624,1641.5C 569.688,1609.93 515.522,1578.27 461.5,1546.5 Z M 839.5,1547.5 C 944.333,1546.33 1049.33,1546.17 1154.5,1547C 1102.07,1577.63 1049.57,1608.13 997,1638.5C 944.57,1608.04 892.07,1577.7 839.5,1547.5 Z M 1208.5,1546.5 C 1319.17,1546.5 1429.83,1546.5 1540.5,1546.5C 1485,1578.99 1429,1610.66 1372.5,1641.5C 1317.2,1610.85 1262.54,1579.19 1208.5,1546.5 Z M 810.5,1549.5 C 813.691,1550.09 816.691,1551.26 819.5,1553C 869.669,1582.59 920.003,1611.92 970.5,1641C 865.167,1641.67 759.833,1641.67 654.5,1641C 706.727,1610.73 758.727,1580.23 810.5,1549.5 Z M 1179.5,1549.5 C 1182.69,1550.09 1185.69,1551.26 1188.5,1553C 1238.5,1582.33 1288.5,1611.67 1338.5,1641C 1233.5,1641.67 1128.5,1641.67 1023.5,1641C 1075.73,1610.73 1127.73,1580.23 1179.5,1549.5 Z M 652.5,1658.5 C 756.333,1657.33 860.333,1657.17 964.5,1658C 912.323,1688.18 860.157,1718.35 808,1748.5C 756.21,1718.36 704.376,1688.36 652.5,1658.5 Z M 994.5,1657.5 C 996.199,1657.34 997.866,1657.51 999.5,1658C 1051.24,1688.73 1103.24,1719.07 1155.5,1749C 1049.83,1749.67 944.167,1749.67 838.5,1749C 890.727,1718.73 942.727,1688.23 994.5,1657.5 Z M 1029.5,1658.5 C 1134.67,1657.33 1240,1657.17 1345.5,1658C 1292.41,1688.63 1239.25,1719.13 1186,1749.5C 1134.02,1718.76 1081.86,1688.43 1029.5,1658.5 Z M 837.5,1766.5 C 943.666,1765.33 1050,1765.17 1156.5,1766C 1139.83,1775.67 1123.17,1785.33 1106.5,1795C 1034.83,1832.23 962.833,1832.89 890.5,1797C 872.928,1786.58 855.261,1776.41 837.5,1766.5 Z"/></g>
</svg>
